<?xml version="1.0" encoding="UTF-8" standalone="no"?>
<!-- Created with Inkscape (http://www.inkscape.org/) -->

<svg
   xmlns:dc="http://purl.org/dc/elements/1.1/"
   xmlns:cc="http://creativecommons.org/ns#"
   xmlns:rdf="http://www.w3.org/1999/02/22-rdf-syntax-ns#"
   xmlns:svg="http://www.w3.org/2000/svg"
   xmlns="http://www.w3.org/2000/svg"
   xmlns:sodipodi="http://sodipodi.sourceforge.net/DTD/sodipodi-0.dtd"
   xmlns:inkscape="http://www.inkscape.org/namespaces/inkscape"
   width="200mm"
   height="200mm"
   viewBox="0 0 200 200"
   version="1.1"
   id="svg8"
   sodipodi:docname="radial-trimmed.svg"
   inkscape:version="0.92.2 2405546, 2018-03-11">
  <defs
     id="defs2" />
  <sodipodi:namedview
     id="base"
     pagecolor="#ffffff"
     bordercolor="#666666"
     borderopacity="1.0"
     inkscape:pageopacity="0.0"
     inkscape:pageshadow="2"
     inkscape:zoom="1"
     inkscape:cx="320.46743"
     inkscape:cy="396.69943"
     inkscape:document-units="mm"
     inkscape:current-layer="layer1"
     showgrid="false"
     inkscape:window-width="2516"
     inkscape:window-height="1371"
     inkscape:window-x="16"
     inkscape:window-y="41"
     inkscape:window-maximized="0" />
  <metadata
     id="metadata5">
    <rdf:RDF>
      <cc:Work
         rdf:about="">
        <dc:format>image/svg+xml</dc:format>
        <dc:type
           rdf:resource="http://purl.org/dc/dcmitype/StillImage" />
        <dc:title></dc:title>
      </cc:Work>
    </rdf:RDF>
  </metadata>
  <g
     inkscape:label="Layer 1"
     inkscape:groupmode="layer"
     id="layer1"
     transform="translate(0,-97)">
    <path
       style="fill:#ff2a2a;stroke:#000000;stroke-width:0;stroke-linecap:butt;stroke-linejoin:miter;stroke-miterlimit:4;stroke-dasharray:none;stroke-opacity:1"
       d="M 0.375 0.38476562 L 377.94922 377.95312 L 113.56836 0.38476562 L 0.375 0.38476562 z M 377.94922 377.95312 L 0.375 113.57812 L 0.375 201.89258 L 377.94922 377.95312 z M 201.88477 0.38476562 L 377.95117 377.95117 L 276.7793 0.38476562 L 201.88477 0.38476562 z M 344.91797 0.38476562 L 377.95312 377.95508 L 410.98438 0.38476562 L 344.91797 0.38476562 z M 377.95312 377.95508 L 377.95117 377.95508 L 377.95117 377.95703 L 377.95117 377.95898 L 377.94922 377.96094 L 201.89062 755.5293 L 276.78711 755.5293 L 377.95312 377.96289 L 479.125 755.5293 L 554.02148 755.5293 L 377.95508 377.96094 L 377.95312 377.95898 L 377.95508 377.95703 L 377.95508 377.95508 L 755.51953 0.38476562 L 642.32617 0.38476562 L 377.95508 377.95117 L 377.95312 377.95508 z M 377.95508 377.95117 L 554.01367 0.38476562 L 479.12109 0.38476562 L 377.95508 377.95117 z M 377.95508 377.95508 L 755.53125 201.88477 L 755.53125 113.57031 L 377.95508 377.95508 z M 377.95508 377.95703 L 755.53125 344.91992 L 755.53125 276.7832 L 377.95508 377.95703 z M 377.95508 377.95703 L 755.53125 479.125 L 755.53125 410.98828 L 377.95508 377.95703 z M 377.95508 377.95703 L 755.53125 642.33594 L 755.53125 554.02148 L 377.95508 377.95703 z M 377.95508 377.96094 L 642.33594 755.5293 L 755.53125 755.5293 L 377.95508 377.96094 z M 377.95312 377.96289 L 344.92188 755.5293 L 410.98828 755.5293 L 377.95312 377.96289 z M 377.94922 377.96094 L 0.38671875 755.5293 L 113.57812 755.5293 L 377.94922 377.96094 z M 377.94922 377.96094 L 0.375 554.0293 L 0.375 642.34375 L 377.94922 377.96094 z M 377.95117 377.95703 L 0.375 410.99414 L 0.375 479.13086 L 377.95117 377.95703 z M 377.95117 377.95703 L 0.375 276.78906 L 0.375 344.92578 L 377.95117 377.95703 z "
       transform="matrix(0.26458333,0,0,0.26458333,0,97)"
       id="path3849-1-7-2-3" />
  </g>
</svg>
